<?xml version="1.0" encoding="UTF-8"?>
<svg id="Layer_1" xmlns="http://www.w3.org/2000/svg" version="1.1" viewBox="0 0 397 97">
  <!-- Generator: Adobe Illustrator 29.6.0, SVG Export Plug-In . SVG Version: 2.1.1 Build 207)  -->
  <defs>
    <style>
      .st0 {
        fill: #059669;
      }

      .st1 {
        fill: #0ea5e9;
      }
    </style>
  </defs>
  <path d="M20.2,78.3v-8.2C6.5,69.9,0,60.2,0,49s6.5-21.1,20.6-21.1h22.5c14.1,0,20.6,9.8,20.6,21.1s-6.4,21-20.4,21.1v8.2h26V3.2h23.1v93.5H1v-18.5h19.2ZM20.3,7.3V.2h23.1v7.2h19.3v17.4H1V7.3h19.3ZM28.2,54.2h7.4c3,0,4.9-2.2,4.9-5.2s-1.9-5.2-4.9-5.2h-7.4c-3,0-4.9,2.2-4.9,5.2s1.9,5.2,4.9,5.2Z"/>
  <path d="M122.1,54.7h53.3c12.1,0,20.6,8.7,20.6,21s-8.5,21-20.6,21h-53.3c-12.1,0-20.6-8.7-20.6-21s8.5-21,20.6-21ZM102.5,30.1c6.4-.6,10.3-7.3,10.3-18.8V3.2h22.1v8.1c0,11.5,3.8,17.1,10.3,17.7v21.5c-8.7-.3-17-5.1-21.3-12.5-4.3,7.4-12.6,13.2-21.3,13.5v-21.5ZM129.7,79.3h38.2c3,0,4.9-1,4.9-3.6s-1.9-3.6-4.9-3.6h-38.2c-3,0-4.9,1-4.9,3.6s1.9,3.6,4.9,3.6ZM173.9,50.6v-14h-4.6v14h-21.1V3.2h21.1v13.8h4.6V3.2h21.1v47.4h-21.1Z"/>
  <rect x="373.9" y="3.2" width="23.1" height="93.5"/>
  <polygon points="272.4 3.2 272.4 33 259.3 33 259.3 53.4 272.4 53.4 272.4 96.8 295.5 96.8 295.5 3.2 272.4 3.2"/>
  <g>
    <rect class="st0" x="205" y="7.4" width="56.5" height="20.5"/>
    <path class="st0" d="M238.4,62.8c-2.4-2.8-4.5-6-6.2-9.4h22.9v-20.5h-49.8c.5,7.2,1.9,14.1,4.2,20.5h0c4.2,12.2,11.3,22.7,20.3,30.4,0,0,.1.1.2.2,1.6,1.3,3.2,2.5,4.9,3.7.1,0,.3.2.4.3.5.3,1,.7,1.5,1,.2.1.4.2.6.4,1.6.9,3.2,1.8,4.8,2.6.3.1.6.3.9.4.5.2.9.4,1.4.6.3.1.7.3,1,.4.7.3,1.5.6,2.2.8.4.1.8.3,1.2.4.4.1.9.3,1.3.4.4.1.8.2,1.2.3.4.1.9.2,1.3.3.5.1,1.1.2,1.7.3.6.1,1.2.2,1.7.3.5,0,1,.2,1.5.2.4,0,.8.1,1.3.1.5,0,1,0,1.4.1.4,0,.8,0,1.2,0,0,0,0,0,0,0v-21.1c-8.6-.8-16.7-5.3-23.1-12.9Z"/>
  </g>
  <g>
    <rect class="st1" x="316" y="7.4" width="46.3" height="20.5"/>
    <path class="st1" d="M367.2,32.9h-56.5v20.5h29c-6.4,11.8-16.8,20.1-29,21.9v21.1c10.5-1,20.2-4.9,28.5-11.1,7.3,6,17.4,10.4,28,11.4v-22.6c-5.1-.6-9.3-2.3-12.6-5,6.8-10.1,11.2-22.4,12.3-35.7l.3-.6Z"/>
  </g>
</svg>